<svg xmlns="http://www.w3.org/2000/svg" viewBox="0 0 512 512" role="img" aria-label="Аватар Полюса">
  <defs>
    <radialGradient id="bg" cx="35%" cy="25%" r="70%">
      <stop offset="0%" stop-color="#274f75"/>
      <stop offset="55%" stop-color="#15263f"/>
      <stop offset="100%" stop-color="#0b1222"/>
    </radialGradient>
    <linearGradient id="cloak" x1="0" y1="0" x2="1" y2="1">
      <stop offset="0%" stop-color="#43382f"/>
      <stop offset="100%" stop-color="#17181e"/>
    </linearGradient>
    <linearGradient id="gold" x1="0" y1="0" x2="1" y2="1">
      <stop offset="0%" stop-color="#fff1a6"/>
      <stop offset="40%" stop-color="#f6c33f"/>
      <stop offset="100%" stop-color="#8b5a14"/>
    </linearGradient>
  </defs>

  <rect width="512" height="512" rx="128" fill="url(#bg)"/>
  <circle cx="256" cy="130" r="130" fill="#5aa8d1" opacity="0.08"/>

  <path d="M120 456 Q144 292 256 124 Q370 292 392 456 Z" fill="url(#cloak)"/>
  <path d="M184 452 Q208 330 256 274 Q308 330 330 452 Z" fill="#d3b27b"/>
  <path d="M158 208 Q218 86 256 76 Q294 86 354 208 L324 276 Q290 236 256 236 Q222 236 188 276 Z" fill="#28262d"/>

  <path d="M200 132 L312 132 L336 164 L300 330 L212 330 L176 164 Z" fill="url(#gold)" stroke="#f3d06b" stroke-width="8" stroke-linejoin="round"/>
  <path d="M236 132 L276 132 L270 330 L242 330 Z" fill="#8f6117" opacity="0.7"/>
  <path d="M226 232 Q256 212 286 232" stroke="#6f4911" stroke-width="10" stroke-linecap="round" fill="none"/>
  <path d="M212 188 Q234 158 250 190" fill="#fff2a7"/>
  <path d="M300 188 Q278 158 262 190" fill="#fff2a7"/>
  <circle cx="232" cy="188" r="18" fill="#ffd54f"/>
  <circle cx="280" cy="188" r="18" fill="#ffd54f"/>
  <circle cx="232" cy="188" r="10" fill="#fff59f"/>
  <circle cx="280" cy="188" r="10" fill="#fff59f"/>

  <path d="M164 456 Q204 400 256 392 Q308 400 348 456 Z" fill="#1a1920" opacity="0.9"/>
</svg>
