<svg xmlns="http://www.w3.org/2000/svg" viewBox="0 0 1200 420" role="img" aria-label="Полюс">
  <defs>
    <linearGradient id="sky" x1="0" y1="0" x2="0" y2="1">
      <stop offset="0%" stop-color="#9fd0ff"/>
      <stop offset="52%" stop-color="#d9e9ff"/>
      <stop offset="100%" stop-color="#eef5ff"/>
    </linearGradient>
    <linearGradient id="snow" x1="0" y1="0" x2="1" y2="1">
      <stop offset="0%" stop-color="#fdfefe"/>
      <stop offset="100%" stop-color="#dde7f7"/>
    </linearGradient>
    <linearGradient id="brass" x1="0" y1="0" x2="1" y2="1">
      <stop offset="0%" stop-color="#f9d77a"/>
      <stop offset="55%" stop-color="#d7a540"/>
      <stop offset="100%" stop-color="#8b5d1a"/>
    </linearGradient>
    <linearGradient id="water" x1="0" y1="0" x2="1" y2="0">
      <stop offset="0%" stop-color="#c6eef8"/>
      <stop offset="50%" stop-color="#7fd2f3"/>
      <stop offset="100%" stop-color="#d5f7ff"/>
    </linearGradient>
    <radialGradient id="sun" cx="50%" cy="10%" r="38%">
      <stop offset="0%" stop-color="#fff9de" stop-opacity="0.95"/>
      <stop offset="100%" stop-color="#fff9de" stop-opacity="0"/>
    </radialGradient>
  </defs>

  <rect width="1200" height="420" fill="url(#sky)"/>
  <rect width="1200" height="420" fill="url(#sun)"/>

  <g opacity="0.9">
    <path d="M0 210 L120 105 L180 170 L260 95 L360 220 Z" fill="#d9e7fa"/>
    <path d="M190 215 L360 62 L440 178 L540 92 L650 230 Z" fill="#edf4ff"/>
    <path d="M490 220 L670 56 L760 176 L860 82 L990 235 Z" fill="#e8f1ff"/>
    <path d="M850 225 L980 72 L1060 165 L1140 98 L1200 220 Z" fill="#dbe8fb"/>
  </g>

  <g opacity="0.9">
    <path d="M0 300 Q140 255 240 298 T520 286 T880 294 T1200 282 V420 H0 Z" fill="#f7fbff"/>
    <path d="M0 338 Q160 312 310 334 T650 326 T980 336 T1200 330 V420 H0 Z" fill="#ecf4fd"/>
  </g>

  <g>
    <path d="M420 238 Q600 205 780 238 L735 290 H465 Z" fill="#bcc7dd"/>
    <rect x="470" y="190" width="260" height="80" rx="10" fill="#eef3fb" stroke="#c7d5ec" stroke-width="4"/>
    <rect x="560" y="120" width="90" height="110" rx="16" fill="#f8fbff" stroke="#c7d5ec" stroke-width="4"/>
    <ellipse cx="605" cy="118" rx="70" ry="45" fill="#fff8dd" stroke="#c6902f" stroke-width="10"/>
    <ellipse cx="605" cy="118" rx="56" ry="34" fill="url(#brass)"/>
    <rect x="510" y="220" width="35" height="60" rx="8" fill="#eef3fb" stroke="#c7d5ec" stroke-width="3"/>
    <rect x="665" y="220" width="35" height="60" rx="8" fill="#eef3fb" stroke="#c7d5ec" stroke-width="3"/>
    <g fill="url(#brass)">
      <circle cx="525" cy="210" r="14"/>
      <circle cx="683" cy="210" r="14"/>
      <circle cx="605" cy="148" r="12"/>
    </g>
  </g>

  <g opacity="0.92">
    <path d="M60 322 H1140" stroke="#9fc9d9" stroke-width="10" stroke-linecap="round"/>
    <path d="M140 326 C240 280, 300 290, 392 326" stroke="url(#water)" stroke-width="20" stroke-linecap="round" fill="none"/>
    <path d="M808 326 C890 286, 960 286, 1050 326" stroke="url(#water)" stroke-width="20" stroke-linecap="round" fill="none"/>
  </g>

  <g>
    <rect x="74" y="230" width="34" height="88" rx="5" fill="#d2b56c"/>
    <rect x="82" y="224" width="18" height="94" rx="4" fill="#2d6c94"/>
    <rect x="1088" y="230" width="34" height="88" rx="5" fill="#d2b56c"/>
    <rect x="1096" y="224" width="18" height="94" rx="4" fill="#2d6c94"/>
  </g>

  <g fill="none" stroke="#ffffff" stroke-opacity="0.78">
    <circle cx="180" cy="56" r="2"/>
    <circle cx="300" cy="42" r="2.4"/>
    <circle cx="480" cy="72" r="1.8"/>
    <circle cx="712" cy="48" r="2.2"/>
    <circle cx="920" cy="62" r="2"/>
  </g>
</svg>
